<svg xmlns="http://www.w3.org/2000/svg" width="20.022" height="23.377" viewBox="0 0 20.022 23.377">
  <g id="Group_17190" data-name="Group 17190" transform="translate(-996.934 -496.398)">
    <g id="Group_17171" data-name="Group 17171" transform="translate(997.134 499.953)">
      <path id="Path_23414" data-name="Path 23414" d="M1006.945,570.655a9.811,9.811,0,1,1,9.811-9.811A9.822,9.822,0,0,1,1006.945,570.655Zm0-18.906a9.1,9.1,0,1,0,9.1,9.1A9.106,9.106,0,0,0,1006.945,551.749Z" transform="translate(-997.134 -551.033)" fill="#fff" stroke="#fff" stroke-width="0.4"/>
    </g>
    <g id="Group_17172" data-name="Group 17172" transform="translate(998.579 501.398)">
      <path id="Path_23415" data-name="Path 23415" d="M1046.141,608.407a8.365,8.365,0,1,1,8.365-8.365A8.375,8.375,0,0,1,1046.141,608.407Zm0-16.5a8.138,8.138,0,1,0,8.138,8.138A8.147,8.147,0,0,0,1046.141,591.9Z" transform="translate(-1037.775 -591.676)" fill="#fff" stroke="#fff" stroke-width="2"/>
    </g>
    <g id="Group_17173" data-name="Group 17173" transform="translate(1005.918 508.737)">
      <circle id="Ellipse_332" data-name="Ellipse 332" cx="1.027" cy="1.027" r="1.027" transform="translate(0 0)" fill="#fff"/>
    </g>
    <g id="Group_17174" data-name="Group 17174" transform="translate(1006.587 504.338)">
      <rect id="Rectangle_5249" data-name="Rectangle 5249" width="0.716" height="5.425" transform="translate(0 0)" fill="#fff"/>
    </g>
    <g id="Group_17175" data-name="Group 17175" transform="translate(1006.587 500.311)">
      <rect id="Rectangle_5250" data-name="Rectangle 5250" width="0.716" height="0.85" transform="translate(0 0)" fill="#fff"/>
    </g>
    <g id="Group_17176" data-name="Group 17176" transform="translate(1006.587 518.367)">
      <rect id="Rectangle_5251" data-name="Rectangle 5251" width="0.716" height="0.85" transform="translate(0 0)" fill="#fff"/>
    </g>
    <g id="Group_17177" data-name="Group 17177" transform="translate(1001.908 501.398)">
      <rect id="Rectangle_5252" data-name="Rectangle 5252" width="0.716" height="0.85" transform="translate(0 0.358) rotate(-29.999)" fill="#fff"/>
    </g>
    <g id="Group_17178" data-name="Group 17178" transform="translate(1010.937 517.035)">
      <rect id="Rectangle_5253" data-name="Rectangle 5253" width="0.716" height="0.85" transform="translate(0 0.358) rotate(-29.999)" fill="#fff"/>
    </g>
    <g id="Group_17179" data-name="Group 17179" transform="translate(998.579 504.727)">
      <rect id="Rectangle_5254" data-name="Rectangle 5254" width="0.716" height="0.85" transform="translate(0 0.62) rotate(-60.001)" fill="#fff"/>
    </g>
    <g id="Group_17180" data-name="Group 17180" transform="translate(1014.216 513.755)">
      <rect id="Rectangle_5255" data-name="Rectangle 5255" width="0.716" height="0.85" transform="translate(0 0.62) rotate(-60.001)" fill="#fff"/>
    </g>
    <g id="Group_17181" data-name="Group 17181" transform="translate(997.492 509.406)">
      <rect id="Rectangle_5256" data-name="Rectangle 5256" width="0.85" height="0.716" transform="translate(0 0)" fill="#fff"/>
    </g>
    <g id="Group_17182" data-name="Group 17182" transform="translate(1015.548 509.406)">
      <rect id="Rectangle_5257" data-name="Rectangle 5257" width="0.85" height="0.716" transform="translate(0 0)" fill="#fff"/>
    </g>
    <g id="Group_17183" data-name="Group 17183" transform="translate(998.579 513.755)">
      <rect id="Rectangle_5258" data-name="Rectangle 5258" width="0.85" height="0.716" transform="translate(0 0.425) rotate(-29.997)" fill="#fff"/>
    </g>
    <g id="Group_17184" data-name="Group 17184" transform="translate(1014.216 504.727)">
      <rect id="Rectangle_5259" data-name="Rectangle 5259" width="0.85" height="0.716" transform="translate(0 0.425) rotate(-29.997)" fill="#fff"/>
    </g>
    <g id="Group_17185" data-name="Group 17185" transform="translate(1001.908 517.035)">
      <rect id="Rectangle_5260" data-name="Rectangle 5260" width="0.85" height="0.716" transform="translate(0 0.736) rotate(-60.003)" fill="#fff"/>
    </g>
    <g id="Group_17186" data-name="Group 17186" transform="translate(1010.937 501.398)">
      <rect id="Rectangle_5261" data-name="Rectangle 5261" width="0.85" height="0.716" transform="translate(0 0.736) rotate(-60.003)" fill="#fff"/>
    </g>
    <g id="Group_17187" data-name="Group 17187" transform="translate(1009.293 498.587)">
      <path id="Path_23416" data-name="Path 23416" d="M1186.312,533.309l-2.3-.959.959-2.3,2.3.959Zm-1.365-1.344.98.408.408-.98-.98-.408Z" transform="translate(-1184.011 -530.049)" fill="#fff"/>
    </g>
    <g id="Group_17188" data-name="Group 17188" transform="translate(1004.623 496.398)">
      <path id="Path_23417" data-name="Path 23417" d="M1116.877,498.891h-4.645V496.4h4.645Zm-3.929-.716h3.213v-1.062h-3.213Z" transform="translate(-1112.232 -496.398)" fill="#fff"/>
    </g>
    <g id="Group_17189" data-name="Group 17189" transform="translate(1005.698 498.175)">
      <path id="Path_23418" data-name="Path 23418" d="M1131.261,526.209h-2.493v-2.493h2.493Zm-1.777-.716h1.062v-1.062h-1.062Z" transform="translate(-1128.768 -523.716)" fill="#fff"/>
    </g>
  </g>
</svg>
