<svg xmlns="http://www.w3.org/2000/svg" width="36.157" height="36.149" viewBox="0 0 36.157 36.149">
  <path id="Icon_awesome-instagram" data-name="Icon awesome-instagram" d="M18.077,11.044a9.268,9.268,0,1,0,9.268,9.268A9.253,9.253,0,0,0,18.077,11.044Zm0,15.294A6.026,6.026,0,1,1,24.1,20.312a6.036,6.036,0,0,1-6.026,6.026ZM29.886,10.665A2.162,2.162,0,1,1,27.725,8.5,2.157,2.157,0,0,1,29.886,10.665Zm6.138,2.194c-.137-2.9-.8-5.461-2.92-7.574s-4.678-2.775-7.574-2.92c-2.985-.169-11.93-.169-14.915,0-2.888.137-5.453.8-7.574,2.912S.267,9.955.122,12.851c-.169,2.985-.169,11.93,0,14.915.137,2.9.8,5.461,2.92,7.574s4.678,2.775,7.574,2.92c2.985.169,11.93.169,14.915,0,2.9-.137,5.461-.8,7.574-2.92s2.775-4.678,2.92-7.574c.169-2.985.169-11.922,0-14.906ZM32.169,30.968A6.1,6.1,0,0,1,28.733,34.4c-2.38.944-8.026.726-10.656.726s-8.284.21-10.656-.726a6.1,6.1,0,0,1-3.436-3.436c-.944-2.38-.726-8.026-.726-10.656s-.21-8.284.726-10.656A6.1,6.1,0,0,1,7.422,6.22c2.38-.944,8.026-.726,10.656-.726s8.284-.21,10.656.726a6.1,6.1,0,0,1,3.436,3.436c.944,2.38.726,8.026.726,10.656S33.113,28.6,32.169,30.968Z" transform="translate(0.005 -2.238)" fill="#fff"/>
</svg>
