<svg xmlns="http://www.w3.org/2000/svg" width="32.831" height="32.831" viewBox="0 0 32.831 32.831">
  <path id="Icon_awesome-linkedin" data-name="Icon awesome-linkedin" d="M30.486,2.25H2.338A2.355,2.355,0,0,0,0,4.617v28.1a2.355,2.355,0,0,0,2.338,2.367H30.486a2.361,2.361,0,0,0,2.345-2.367V4.617A2.361,2.361,0,0,0,30.486,2.25ZM9.923,30.391H5.057V14.723H9.93V30.391ZM7.49,12.583a2.821,2.821,0,1,1,2.821-2.821A2.823,2.823,0,0,1,7.49,12.583ZM28.163,30.391H23.3V22.77c0-1.817-.037-4.155-2.528-4.155-2.536,0-2.924,1.979-2.924,4.023v7.753H12.979V14.723h4.668v2.14h.066a5.125,5.125,0,0,1,4.61-2.528c4.925,0,5.841,3.246,5.841,7.468Z" transform="translate(0 -2.25)" fill="#fff"/>
</svg>
