<svg xmlns="http://www.w3.org/2000/svg" width="35.867" height="37.454" viewBox="0 0 35.867 37.454">
  <path id="quora" d="M42.117,29.39s-.183,2.689-2.627,2.689c-1.888,0-3.177-1.44-4.384-3.309a16.485,16.485,0,0,0,5.606-12.455A16.075,16.075,0,0,0,24.886,0,16.075,16.075,0,0,0,9.061,16.314,16.075,16.075,0,0,0,24.886,32.629a15.384,15.384,0,0,0,4.562-.689c1.828,2.9,4.148,5.515,7.781,5.515,7.393,0,7.7-8.064,7.7-8.064H42.117Zm-17.231.55c-5.1,0-9.226-6.1-9.226-13.626S19.791,2.689,24.886,2.689s9.226,6.1,9.226,13.626a18.244,18.244,0,0,1-1.761,8.007,8.4,8.4,0,0,0-4.9-3.791,10.223,10.223,0,0,0-8.127,1.711l.978,2.016s.988-.568,3.439,0c1.544.358,2.744,2.5,4.119,4.959A6.581,6.581,0,0,1,24.886,29.94Z" transform="translate(-9.061)" fill="#fff"/>
</svg>
