<svg xmlns="http://www.w3.org/2000/svg" width="19.389" height="26.557" viewBox="0 0 19.389 26.557">
  <g id="Group_17156" data-name="Group 17156" transform="translate(-697.628 -99.918)">
    <path id="Path_23404" data-name="Path 23404" d="M714.505,221.288h2.413a.354.354,0,0,0,.346-.431l-1.208-5.451a.354.354,0,0,0-.52-.232l-1.084.611q-.511.288-1.043.529a.355.355,0,0,0-.2.4l.215.97a.354.354,0,0,1-.346.431H702.22a.354.354,0,0,1-.346-.431l.215-.97a.355.355,0,0,0-.2-.4q-.532-.242-1.043-.529l-1.084-.611a.354.354,0,0,0-.519.232l-1.208,5.451a.354.354,0,0,0,.346.431h2.413a.354.354,0,0,0,.346-.277l.294-1.329a.354.354,0,0,1,.346-.278H713.52a.354.354,0,0,1,.346.278l.294,1.329A.354.354,0,0,0,714.505,221.288Z" transform="translate(-0.326 -94.812)" fill="#fff"/>
    <path id="Path_23405" data-name="Path 23405" d="M714.361,99.918H700.284a2.656,2.656,0,0,0-2.656,2.656v14.3a2.661,2.661,0,0,0,2.011,2.578,31.37,31.37,0,0,0,15.366,0,2.66,2.66,0,0,0,2.011-2.578v-14.3A2.656,2.656,0,0,0,714.361,99.918Zm-14.027,15.7a1.193,1.193,0,1,1,1.193-1.193A1.193,1.193,0,0,1,700.334,115.617Zm6.438-7.434a.531.531,0,0,1-.589.528l-7.032-.769a.531.531,0,0,1-.474-.528V104.7a.531.531,0,0,1,.531-.531h7.032a.531.531,0,0,1,.531.531Zm7.54,7.434a1.193,1.193,0,1,1,1.193-1.193A1.193,1.193,0,0,1,714.311,115.617Zm1.657-8.2a.531.531,0,0,1-.473.528l-7.032.769a.531.531,0,0,1-.589-.528V104.7a.531.531,0,0,1,.531-.531h7.032a.531.531,0,0,1,.531.531Z" transform="translate(0 0)" fill="#fff"/>
  </g>
</svg>
