<svg xmlns="http://www.w3.org/2000/svg" width="37.521" height="30.474" viewBox="0 0 37.521 30.474">
  <path id="Icon_awesome-twitter" data-name="Icon awesome-twitter" d="M33.664,10.975c.024.333.024.667.024,1,0,10.166-7.738,21.88-21.88,21.88A21.731,21.731,0,0,1,0,30.4a15.908,15.908,0,0,0,1.857.1A15.4,15.4,0,0,0,11.4,27.213a7.7,7.7,0,0,1-7.19-5.333A9.7,9.7,0,0,0,5.666,22a8.133,8.133,0,0,0,2.024-.262A7.691,7.691,0,0,1,1.524,14.19v-.1A7.745,7.745,0,0,0,5,15.07,7.7,7.7,0,0,1,2.619,4.785a21.858,21.858,0,0,0,15.856,8.047,8.681,8.681,0,0,1-.19-1.762A7.7,7.7,0,0,1,31.593,5.809a15.14,15.14,0,0,0,4.881-1.857A7.669,7.669,0,0,1,33.093,8.19,15.416,15.416,0,0,0,37.521,7a16.53,16.53,0,0,1-3.857,3.976Z" transform="translate(0 -3.381)" fill="#fff"/>
</svg>
