<svg xmlns="http://www.w3.org/2000/svg" width="48.103" height="33.822" viewBox="0 0 48.103 33.822">
  <path id="Icon_awesome-youtube" data-name="Icon awesome-youtube" d="M48.147,9.792a6.044,6.044,0,0,0-4.253-4.28C40.143,4.5,25.1,4.5,25.1,4.5S10.059,4.5,6.308,5.512a6.044,6.044,0,0,0-4.253,4.28C1.05,13.568,1.05,21.445,1.05,21.445s0,7.878,1.005,11.653A5.954,5.954,0,0,0,6.308,37.31C10.059,38.322,25.1,38.322,25.1,38.322s15.042,0,18.793-1.012A5.954,5.954,0,0,0,48.147,33.1c1.005-3.776,1.005-11.653,1.005-11.653s0-7.878-1.005-11.653ZM20.182,28.6v-14.3l12.572,7.152L20.182,28.6Z" transform="translate(-1.05 -4.5)" fill="#fff"/>
</svg>
